HIERARCHY
ROOT Hips
{
  OFFSET -4.35178 90.3298 111.633
  CHANNELS 6 Xposition Yposition Zposition Zrotation Xrotation Yrotation
  JOINT LeftUpLeg
  {
    OFFSET 0.103456 1.85784 10.5485
    CHANNELS 6 Xposition Yposition Zposition Zrotation Xrotation Yrotation
    JOINT LeftLeg
    {
      OFFSET 43.5 -4.2e-05 0
      CHANNELS 6 Xposition Yposition Zposition Zrotation Xrotation Yrotation
      JOINT LeftFoot
      {
        OFFSET 42.3722 1.9e-05 0
        CHANNELS 6 Xposition Yposition Zposition Zrotation Xrotation Yrotation
        JOINT LeftToe
        {
          OFFSET 17.3 0 0
          CHANNELS 6 Xposition Yposition Zposition Zrotation Xrotation Yrotation
          End Site
          {
            OFFSET 0 0 0
          }
        }
      }
    }
  }
  JOINT RightUpLeg
  {
    OFFSET 0.103456 1.85782 -10.5485
    CHANNELS 6 Xposition Yposition Zposition Zrotation Xrotation Yrotation
    JOINT RightLeg
    {
      OFFSET 43.5 -2.7e-05 0
      CHANNELS 6 Xposition Yposition Zposition Zrotation Xrotation Yrotation
      JOINT RightFoot
      {
        OFFSET 42.3723 0 0
        CHANNELS 6 Xposition Yposition Zposition Zrotation Xrotation Yrotation
        JOINT RightToe
        {
          OFFSET 17.3 0 1.7e-05
          CHANNELS 6 Xposition Yposition Zposition Zrotation Xrotation Yrotation
          End Site
          {
            OFFSET 0 0 0
          }
        }
      }
    }
  }
  JOINT Spine
  {
    OFFSET 6.90197 -2.60373 0
    CHANNELS 6 Xposition Yposition Zposition Zrotation Xrotation Yrotation
    JOINT Spine1
    {
      OFFSET 12.5881 0 0
      CHANNELS 6 Xposition Yposition Zposition Zrotation Xrotation Yrotation
      JOINT Spine2
      {
        OFFSET 12.3432 -1.8e-05 0
        CHANNELS 6 Xposition Yposition Zposition Zrotation Xrotation Yrotation
        JOINT Neck
        {
          OFFSET 25.8329 2.3e-05 0
          CHANNELS 6 Xposition Yposition Zposition Zrotation Xrotation Yrotation
          JOINT Head
          {
            OFFSET 11.7666 0 0
            CHANNELS 6 Xposition Yposition Zposition Zrotation Xrotation Yrotation
            End Site
            {
              OFFSET 0 0 0
            }
          }
        }
        JOINT LeftShoulder
        {
          OFFSET 19.7459 -1.48035 6.0001
          CHANNELS 6 Xposition Yposition Zposition Zrotation Xrotation Yrotation
          JOINT LeftArm
          {
            OFFSET 11.2841 1.8e-05 -2e-05
            CHANNELS 6 Xposition Yposition Zposition Zrotation Xrotation Yrotation
            JOINT LeftForeArm
            {
              OFFSET 33 -1.3e-05 1.9e-05
              CHANNELS 6 Xposition Yposition Zposition Zrotation Xrotation Yrotation
              JOINT LeftHand
              {
                OFFSET 25.2 3.2e-05 1.1e-05
                CHANNELS 6 Xposition Yposition Zposition Zrotation Xrotation Yrotation
                End Site
                {
                  OFFSET 0 0 0
                }
              }
            }
          }
        }
        JOINT RightShoulder
        {
          OFFSET 19.7461 -1.48036 -6.00008
          CHANNELS 6 Xposition Yposition Zposition Zrotation Xrotation Yrotation
          JOINT RightArm
          {
            OFFSET 11.2841 0 0
            CHANNELS 6 Xposition Yposition Zposition Zrotation Xrotation Yrotation
            JOINT RightForeArm
            {
              OFFSET 33.0001 1.6e-05 0
              CHANNELS 6 Xposition Yposition Zposition Zrotation Xrotation Yrotation
              JOINT RightHand
              {
                OFFSET 25.1998 0.000123 0.000432
                CHANNELS 6 Xposition Yposition Zposition Zrotation Xrotation Yrotation
                End Site
                {
                  OFFSET 0 0 0
                }
              }
            }
          }
        }
      }
    }
  }
}
MOTION
Frames:	4
Frame Time:	0.0333333
-19.3266 92.0924 -3.67568 62.4644 80.4951 29.6459 0.103456 1.85784 10.5485 4.34227 13.734 -177.849 43.5 -4.2e-05 1e-05 -16.0258 -8.81785 -2.96625 42.3722 1.9e-05 0 74.3224 0.183219 -0.331978 17.3 2.22045e-16 3e-06 21.4546 -1e-06 0.003093 0.103456 1.85782 -10.5485 8.7028 -1.80991 174.609 43.5 -2.7e-05 4e-06 -5.11365 10.8515 2.42893 42.3723 2.66454e-15 1e-05 79.3197 9.55781 -10.4762 17.3 -6e-06 1.7e-05 21.4546 -1.9e-05 -0.003116 6.90197 -2.60373 -3e-06 6.98059 0.308918 0.0898701 12.5881 1e-05 8e-06 3.91455 0.683469 0.133127 12.3432 -1.8e-05 -5e-06 3.58556 0.747678 0.100112 25.8329 2.3e-05 7e-06 6.3698 0.897186 -5.57065 11.7666 -8e-06 -6e-06 -23.8928 -5.34186 11.9261 19.7459 -1.48035 6.0001 173.746 -9.56135 -104.016 11.2841 1.8e-05 -2e-05 6.7414 -27.9391 34.0873 33 -1.3e-05 1.9e-05 -14.8669 8.30571 -17.575 25.2 3.2e-05 1.1e-05 4.18317 30.7404 1.8734 19.7461 -1.48036 -6.00008 179.334 0.96014 83.8823 11.2841 3.55271e-15 -1e-06 7.64594 2.80527 -2.87832 33.0001 1.6e-05 -1e-06 -23.5071 8.47537 18.2606 25.1998 0.000123 0.000432 21.2356 -12.3066 4.03274 
-19.326 92.0922 -3.67396 62.5385 80.4844 29.572 0.103456 1.85784 10.5485 4.34562 13.7167 -177.835 43.5 -4.2e-05 1e-05 -16.0264 -8.83068 -2.96636 42.3722 1.9e-05 0 74.3228 0.162274 -0.331978 17.3 2.66454e-15 3e-06 21.4546 -1e-06 0.003093 0.103456 1.85782 -10.5485 8.71296 -1.78042 174.614 43.5 -2.7e-05 4e-06 -5.10574 10.855 2.42896 42.3723 1.77636e-15 1e-05 79.3368 9.53525 -10.4755 17.3 -6e-06 1.7e-05 21.4546 -1.9e-05 -0.003116 6.90197 -2.60373 -3e-06 6.98059 0.308918 0.0898701 12.5881 1e-05 8e-06 3.93147 0.683469 0.133127 12.3432 -1.8e-05 -5e-06 3.60258 0.747678 0.100112 25.8329 2.3e-05 7e-06 6.35959 0.795006 -5.55334 11.7666 -8e-06 -6e-06 -23.9655 -5.40438 11.8065 19.7459 -1.48035 6.0001 173.726 -9.61794 -104.021 11.2841 1.8e-05 -2e-05 6.70531 -27.8714 33.9942 33 -1.3e-05 1.9e-05 -14.8246 8.32271 -17.5758 25.2 3.2e-05 1.1e-05 4.18299 30.7522 1.87309 19.7461 -1.48036 -6.00008 179.334 0.960303 83.8826 11.2841 0 -1e-06 7.6346 2.73499 -2.8047 33.0001 1.6e-05 -1e-06 -23.4891 8.4951 18.2294 25.1998 0.000123 0.000432 21.2215 -12.3066 4.03197 
-19.3511 92.092 -3.67531 62.5539 80.5014 29.5574 0.103456 1.85784 10.5485 4.35595 13.7003 -177.829 43.5 -4.2e-05 1e-05 -16.0205 -8.83346 -2.96638 42.3722 1.9e-05 0 74.3068 0.142031 -0.331281 17.3 0 3e-06 21.4546 -1e-06 0.003093 0.103456 1.85782 -10.5485 8.7435 -1.7844 174.622 43.5 -2.7e-05 4e-06 -5.06829 10.8661 2.42905 42.3723 1.77636e-15 1e-05 79.3402 9.52038 -10.4768 17.3 -6e-06 1.7e-05 21.4546 -1.9e-05 -0.003116 6.90197 -2.60373 -3e-06 6.98059 0.308918 0.0898701 12.5881 1e-05 8e-06 3.93926 0.683469 0.133127 12.3432 -1.8e-05 -5e-06 3.6104 0.747678 0.100112 25.8329 2.3e-05 7e-06 6.34942 0.675127 -5.5249 11.7666 -8e-06 -6e-06 -23.9848 -5.48432 11.6737 19.7459 -1.48035 6.0001 173.702 -9.68467 -104.042 11.2841 1.8e-05 -2e-05 6.633 -27.8277 33.9278 33 -1.3e-05 1.9e-05 -14.7929 8.34611 -17.5769 25.2 3.2e-05 1.1e-05 4.16625 30.7587 1.88503 19.7461 -1.48036 -6.00008 179.353 0.940355 83.8574 11.2841 -3.55271e-15 -1e-06 7.67934 2.68967 -2.72977 33.0001 1.6e-05 -1e-06 -23.4517 8.46968 18.2423 25.1998 0.000123 0.000432 21.084 -12.3062 4.06133 
-19.3826 92.0918 -3.6466 62.5381 80.5348 29.5805 0.103456 1.85784 10.5485 4.37909 13.6845 -177.831 43.5 -4.2e-05 1e-05 -15.9866 -8.83412 -2.96638 42.3722 1.9e-05 -4.44089e-16 74.3126 0.128235 -0.341464 17.3 -8.88178e-16 3e-06 21.4546 -1e-06 0.003093 0.103456 1.85782 -10.5485 8.77476 -1.79552 174.638 43.5 -2.7e-05 4e-06 -5.03761 10.8792 2.42916 42.3723 -8.88178e-16 1e-05 79.3673 9.53714 -10.4874 17.3 -6e-06 1.7e-05 21.4546 -1.9e-05 -0.003116 6.90197 -2.60373 -3e-06 6.98107 0.308918 0.0898701 12.5881 1e-05 8e-06 3.94363 0.683469 0.133127 12.3432 -1.8e-05 -5e-06 3.61469 0.747678 0.100112 25.8329 2.3e-05 7e-06 6.34916 0.565363 -5.49221 11.7666 -8e-06 -6e-06 -23.9402 -5.5647 11.5652 19.7459 -1.48035 6.0001 173.696 -9.73311 -104.065 11.2841 1.8e-05 -2e-05 6.55546 -27.8036 33.868 33 -1.3e-05 1.9e-05 -14.825 8.34621 -17.5626 25.2 3.2e-05 1.1e-05 4.14199 30.757 1.88709 19.7461 -1.48036 -6.00008 179.337 0.898654 83.8679 11.2841 -3.55271e-15 -1e-06 7.78074 2.7657 -2.68573 33.0001 1.6e-05 -1e-06 -23.5109 8.51416 18.2749 25.1998 0.000123 0.000432 21.2155 -12.306 4.07213 
